<svg xmlns="http://www.w3.org/2000/svg" version="1.1" xmlns:xlink="http://www.w3.org/1999/xlink" xmlns:svgjs="http://svgjs.dev/svgjs" width="1000" height="391" viewBox="0 0 1000 391"><g transform="matrix(1,0,0,1,-0.6060606060606233,0.22970588544160364)"><svg viewBox="0 0 396 155" data-background-color="#ffffff" preserveAspectRatio="xMidYMid meet" height="391" width="1000" xmlns="http://www.w3.org/2000/svg" xmlns:xlink="http://www.w3.org/1999/xlink"><g id="tight-bounds" transform="matrix(1,0,0,1,0.2400000000000091,-0.09105987786048786)"><svg viewBox="0 0 395.52 155.18211975572098" height="155.18211975572098" width="395.52"><g><svg viewBox="0 0 397.4975999999999 155.95803035449956" height="155.18211975572098" width="395.52"><g><rect width="397.4975999999999" height="4.776788485948725" x="0" y="85.70767748798848" fill="#abddd9" opacity="1" stroke-width="0" stroke="transparent" fill-opacity="1" class="rect-o-0" data-fill-palette-color="secondary" rx="1%" id="o-0" data-palette-color="#abddd9"></rect></g><g transform="matrix(1,0,0,1,0.9887999999999693,102.98914787432653)"><svg viewBox="0 0 395.52 52.968882480173036" height="52.968882480173036" width="395.52"><g><svg viewBox="0 0 395.52 52.968882480173036" height="52.968882480173036" width="395.52"><g><svg viewBox="0 0 395.52 52.968882480173036" height="52.968882480173036" width="395.52"><g transform="matrix(1,0,0,1,0,0)"><svg width="395.52" viewBox="3.1500000953674316 -36.70000076293945 277.3800048828125 37.150001525878906" height="52.968882480173036" data-palette-color="#124948"><path d="M44.35-0.45L44.35-0.45Q43 0.4 41.5 0.4 40 0.4 39.18-0.5 38.35-1.4 38.15-3.5L38.15-3.5 36.4-30.25 25.8-1.95Q25.25-0.35 23.6-0.35 21.95-0.35 21.4-1.95L21.4-1.95 10.95-30.25 9.2-3.65Q9.05-1.5 8.35-0.53 7.65 0.45 6.05 0.45 4.45 0.45 3.15-0.85L3.15-0.85Q4.15-1.7 4.3-3.9L4.3-3.9 6.4-32.1Q6.4-32.4 6.4-32.65L6.4-32.65Q6.4-34.3 5.6-35.25L5.6-35.25Q7.75-36.55 10.1-36.55 12.45-36.55 13.75-35.25 15.05-33.95 15.95-31.15L15.95-31.15 24-9.4 32.3-31.05Q33.3-34.15 34.83-35.35 36.35-36.55 38.45-36.55 40.55-36.55 42.35-35.65L42.35-35.65Q41.55-34.55 41.55-32.9L41.55-32.9Q41.55-32.65 41.55-32.35L41.55-32.35 43.5-4Q43.6-1.4 44.35-0.45ZM64 0.4L64 0.4Q60.75 0.4 60.75-4L60.75-4 60.8-15.9 51.65-31.7Q50.4-33.6 48.65-33.65L48.65-33.65Q49.5-36.55 52.15-36.55 54.8-36.55 56.65-33.3L56.65-33.3 63.85-20.7 71.2-31.7Q72.15-33 72.15-34 72.15-35 71.4-35.8L71.4-35.8Q72.8-36.55 74.37-36.55 75.95-36.55 76.8-35.83 77.65-35.1 77.65-33.8 77.65-32.5 76.55-30.85L76.55-30.85 66.05-16 66-3.5Q66-1.55 66.85-0.45L66.85-0.45Q65.6 0.4 64 0.4ZM135.94-33L135.94-33Q135.94-34.6 134.89-35.45L134.89-35.45Q136.09-36.55 137.74-36.55L137.74-36.55Q141.04-36.55 141.04-33.3L141.04-33.3Q141.04-32.75 140.74-31.15L140.74-31.15 133.34-3.6Q132.34 0.45 129.02 0.45 125.69 0.45 124.79-3.6L124.79-3.6 118.04-29.05 111.19-3.6Q110.69-1.4 109.64-0.48 108.59 0.45 106.84 0.45 105.09 0.45 104.12-0.43 103.14-1.3 102.59-3.6L102.59-3.6 95.29-31.45Q94.64-33.95 93.19-34.6L93.19-34.6Q94.44-36.55 96.74-36.55L96.74-36.55Q98.24-36.55 99.19-35.58 100.14-34.6 100.64-32.2L100.64-32.2 107.09-5.1 114.54-33.4Q115.04-35.15 115.97-35.85 116.89-36.55 118.39-36.55L118.39-36.55Q121.49-36.55 122.24-33.4L122.24-33.4 129.34-4.95 135.74-31.35Q135.94-32.25 135.94-33ZM154.59-6.95Q157.69-3.15 162.49-3.15 167.29-3.15 169.89-7.45L169.89-7.45Q172.09-11 172.09-16.3L172.09-16.3Q172.09-17.4 171.99-18.6L171.99-18.6Q171.54-25.35 168.44-29.18 165.34-33 160.52-33 155.69-33 153.09-28.7L153.09-28.7Q150.89-25.1 150.89-19.8L150.89-19.8Q150.89-11.5 154.59-6.95L154.59-6.95ZM161.54-36.55Q169.04-36.55 173.19-31.55 177.34-26.55 177.34-18.13 177.34-9.7 173.17-4.63 168.99 0.45 161.52 0.45 154.04 0.45 149.82-4.6 145.59-9.65 145.59-18.05 145.59-26.45 149.82-31.5 154.04-36.55 161.54-36.55ZM196.34-32.15L190.94-32.15 190.94-18.45 196.34-18.45Q200.34-18.45 202.41-20.23 204.49-22 204.49-25.25 204.49-28.5 202.41-30.33 200.34-32.15 196.34-32.15L196.34-32.15ZM208.09 0.45L208.09 0.45Q206.39 0.45 205.26-0.38 204.14-1.2 202.59-3.5L202.59-3.5 195.04-14.5 190.94-14.5 190.94-3.7Q190.94-1.9 192.34-1.3L192.34-1.3Q191.04 0.45 189.09 0.45L189.09 0.45Q185.69 0.45 185.69-3.75L185.69-3.75 185.69-31.8Q185.69-33.6 184.34-34.2L184.34-34.2Q185.74-36.15 188.49-36.15L188.49-36.15 196.54-36.15Q202.44-36.15 206.21-33.27 209.99-30.4 209.99-25.3L209.99-25.3Q209.99-21.25 207.54-18.6 205.09-15.95 200.99-15L200.99-15 208.49-4.75Q209.94-2.75 211.94-2.35L211.94-2.35Q210.59 0.45 208.09 0.45ZM229.04-36.55L229.04-36.55Q236.74-36.55 242.24-32.05L242.24-32.05Q244.94-29.85 246.49-26.23 248.04-22.6 248.04-18 248.04-13.4 246.49-9.8 244.94-6.2 242.24-4L242.24-4Q236.79 0.45 229.04 0.45L229.04 0.45Q222.84 0.45 220.44-1.25 218.04-2.95 218.04-6.55L218.04-6.55 218.09-30.95Q218.09-33.35 217.14-34.55L217.14-34.55Q222.79-36.55 229.04-36.55ZM229.04-3.3L229.04-3.3Q234.84-3.3 238.66-7.15 242.49-11 242.49-18 242.49-25 238.66-28.88 234.84-32.75 229.04-32.75L229.04-32.75Q226.19-32.75 223.44-31.9L223.44-31.9 223.34-6.4Q223.34-4.7 224.39-4 225.44-3.3 229.04-3.3ZM279.43-29.55L279.43-29.55Q279.43-28 278.56-27.1 277.68-26.2 276.38-26.2 275.08-26.2 273.68-26.9L273.68-26.9Q273.98-27.8 273.98-28.55L273.98-28.55Q273.98-30.25 272.18-31.68 270.38-33.1 267.16-33.1 263.93-33.1 261.98-31.78 260.03-30.45 260.03-28.4 260.03-26.35 261.56-24.85 263.08-23.35 265.36-22.35 267.63-21.35 270.28-20.08 272.93-18.8 275.21-17.57 277.48-16.35 279.01-14.4 280.53-12.45 280.53-10.1L280.53-10.1Q280.53-5.55 276.56-2.55 272.58 0.45 266.96 0.45 261.33 0.45 257.61-1.93 253.88-4.3 253.88-7.95L253.88-7.95Q253.88-9.7 254.96-10.78 256.03-11.85 257.71-11.85 259.38-11.85 260.53-10.55L260.53-10.55Q259.38-9.55 259.38-7.73 259.38-5.9 261.41-4.55 263.43-3.2 266.93-3.2 270.43-3.2 272.86-4.9 275.28-6.6 275.28-8.88 275.28-11.15 273.16-12.8 271.03-14.45 268.03-15.68 265.03-16.9 262.01-18.3 258.98-19.7 256.86-21.95 254.73-24.2 254.73-27.1L254.73-27.1Q254.73-31.35 258.48-34.02 262.23-36.7 267.46-36.7 272.68-36.7 276.06-34.63 279.43-32.55 279.43-29.55Z" opacity="1" transform="matrix(1,0,0,1,0,0)" fill="#124948" class="undefined-text-0" data-fill-palette-color="primary" id="text-0"></path></svg></g></svg></g></svg></g></svg></g><g transform="matrix(1,0,0,1,154.14730220620038,0)"><svg viewBox="0 0 89.20299558759915 73.20299558759915" height="73.20299558759915" width="89.20299558759915"><g><svg xmlns="http://www.w3.org/2000/svg" xmlns:xlink="http://www.w3.org/1999/xlink" version="1.1" x="8" y="0" viewBox="1 1 14 14" style="enable-background:new 0 0 16 16;" xml:space="preserve" height="73.20299558759915" width="73.20299558759915" class="icon-icon-0" data-fill-palette-color="accent" id="icon-0"><g fill="#f9c9cb" data-fill-palette-color="accent"><path d="M12.03 7.09L12 7h-1l-0.03 0.09L8 15h1.07l0.749-2h3.362l0.749 2H15L12.03 7.09zM10.193 12L11.5 8.51 12.807 12H10.193z" fill="#f9c9cb" data-fill-palette-color="accent"></path><path d="M8 3h2V2H6V1H5v1H1v1h6c0 1.605-0.908 3.123-2 4.376C4.145 6.393 3.392 5.238 3.115 4H2.101C2.389 5.54 3.302 6.943 4.32 8.103c-1.489 1.486-3.05 2.451-3.08 2.47l0.519 0.855c0.128-0.078 1.712-1.052 3.252-2.587 0.592 0.591 1.184 1.103 1.68 1.491l0.616-0.787C6.831 9.173 6.259 8.682 5.69 8.114 6.937 6.699 8 4.933 8 3z" fill="#f9c9cb" data-fill-palette-color="accent"></path></g></svg></g></svg></g><g><rect width="77.61418220620041" height="4.776788485948725" y="67.42620710165042" x="243.35029779379954" fill="#abddd9" data-fill-palette-color="secondary"></rect><rect width="77.61418220620041" height="4.776788485948725" y="67.42620710165042" x="76.53311999999997" fill="#abddd9" data-fill-palette-color="secondary"></rect></g></svg></g><defs></defs></svg><rect width="395.52" height="155.18211975572098" fill="none" stroke="none" visibility="hidden"></rect></g></svg></g></svg>